# xmcd
#
# Track frame offsets: 
#        150
#        19945
#        32516
#        48208
#        67682
#        85115
#        102541
#        116853
#        137762
#        152123
#        181663
#        205972
#
# Disc length: 2911 seconds
#
# Revision: 0
# Processed by: cddbd v1.5.2PL0 Copyright (c) Steve Scherf et al.
# Submitted via: ExactAudioCopy v1.3
#
DISCID=980b5d0c
DTITLE=Billy Price - Danger Zone
DYEAR=1993
DGENRE=Blues
TTITLE0=Who Will the Next Fool Be
TTITLE1=It's Later Than You Think
TTITLE2=You Don't Exist No More
TTITLE3=T-Bone Shuffle
TTITLE4=Fool's Paradise
TTITLE5=The Big Question
TTITLE6=Early In the Morning
TTITLE7=Danger Zone
TTITLE8=You've Got Bad Intentions
TTITLE9=I'll Take Care of You
TTITLE10=I'm Shakin'
TTITLE11=Shake, Rattle, and Roll
EXTD=
EXTT0=
EXTT1=
EXTT2=
EXTT3=
EXTT4=
EXTT5=
EXTT6=
EXTT7=
EXTT8=
EXTT9=
EXTT10=
EXTT11=
PLAYORDER=
